@startuml
' Generated by the Takt compiler (taktc). Target: PlantUML state diagram.
' Do not edit by hand: this file is overwritten on every generation.
' Takt language version 0.18.0.

title Elevator

[*] --> Main
End --> [*]
Main : Engine
Main --> Middle
Middle : Engine + Engine | Engine + Engine + Engine + Engine
Middle --> End

state Engine {
    [*] --> Idle
    DoorClosing --> Idle
    DoorClosing --> MovingUp
    DoorClosing --> MovingDown
    DoorOpening --> Idle
    Idle --> DoorClosing
    MovingDown --> DoorOpening
    MovingUp --> DoorOpening
}

@enduml
